<?xml version="1.0" encoding="iso-8859-1"?>
<!-- Generator: Adobe Illustrator 19.0.0, SVG Export Plug-In . SVG Version: 6.00 Build 0)  -->
<svg version="1.1" id="awaken" xmlns="http://www.w3.org/2000/svg" xmlns:xlink="http://www.w3.org/1999/xlink" x="0px" y="0px"
	 viewBox="0 0 480 480" style="enable-background:new 0 0 480 480;" xml:space="preserve">
<g>
	<g>
		<path d="M456,184.042c-14.133,0-24,6.301-24,15.32v88.68H295.937l0.184-126.953l91.969-52.824
			c11.337-6.484,15.272-20.931,8.788-32.268c-0.02-0.036-0.041-0.071-0.062-0.107h-0.004c-6.584-11.313-21.065-15.191-32.422-8.684
			l-85.82,49.286c15.78-21.302,11.303-51.363-9.999-67.142s-51.363-11.303-67.142,9.999c-12.651,17.078-12.565,40.442,0.211,57.427
			l-86.364-50.144c-11.994-5.61-26.275-0.659-32.223,11.172c-6.388,11.293-2.412,25.625,8.881,32.013
			c0.05,0.028,0.1,0.056,0.15,0.084l91.777,51.414l-0.053,126.727h-33.787c-3.296-9.536-12.255-15.951-22.344-16H56
			c-2.735,0.026-5.443,0.536-8,1.506V75.241c0-10.766-10.543-19.199-24-19.199S0,64.476,0,75.241v345.602
			c0,10.766,10.543,19.199,24,19.199s24-8.434,24-19.199v-52.801h135.776l-0.018,43.348c0.992,16.716,15.276,29.506,32,28.652
			c8.976,0.093,17.617-3.406,24-9.719c6.383,6.312,15.024,9.812,24,9.719c16.72,0.854,31.002-11.929,32-28.641l0.063-43.359H432
			v56.68c0,9.019,9.867,15.32,24,15.32s24-6.301,24-15.32v-225.36C480,190.343,470.133,184.042,456,184.042z M32,420.843
			c-0.09,0.656-2.773,3.199-8,3.199c-5.25,0-7.922-2.543-8-3.199V75.241c0.078-0.656,2.75-3.199,8-3.199
			c5.227,0,7.914,2.543,8,3.199V420.843z M183.783,352.042H48v-56h0.305c-0.077-4.331,3.364-7.909,7.695-8h71.68
			c4.331,0.091,7.772,3.669,7.695,8c0,4.418,3.582,8,8,8h40.428L183.783,352.042z M240,56.042c17.673,0,32,14.327,32,32
			s-14.327,32-32,32c-17.673,0-32-14.327-32-32C208.02,70.377,222.335,56.062,240,56.042z M284.145,149.519
			c-2.48,1.425-4.011,4.065-4.016,6.926l-0.371,254.945c-1.034,7.85-8.123,13.455-16,12.652
			c-7.123,0.544-13.671-3.926-15.758-10.758V272.042h-16V410.19c-0.113,0.393-0.194,0.794-0.242,1.199
			c-1.034,7.85-8.123,13.455-16,12.652c-7.876,0.803-14.964-4.8-16-12.648l0.109-254.762c0.001-2.897-1.563-5.568-4.09-6.984
			L99.906,95.94c-1.776-0.982-3.085-2.635-3.633-4.59c-0.533-1.896-0.284-3.926,0.691-5.637c2.195-3.859,7.246-6.937,10.383-5.187
			l94.14,54.66c1.22,0.708,2.605,1.081,4.016,1.082h0.004l68.684-0.031c1.397,0,2.769-0.366,3.98-1.062l94.188-54.094
			c3.711-2.138,8.452-0.876,10.609,2.824c2.115,3.661,0.862,8.344-2.799,10.459c-0.015,0.008-0.029,0.017-0.044,0.025
			L284.145,149.519z M432,352.042H295.844l0.07-48H432V352.042z M464,422.636c-5.169,1.875-10.831,1.875-16,0V201.448
			c5.169-1.875,10.831-1.875,16,0V422.636z"/>
	</g>
</g>
<g>
</g>
<g>
</g>
<g>
</g>
<g>
</g>
<g>
</g>
<g>
</g>
<g>
</g>
<g>
</g>
<g>
</g>
<g>
</g>
<g>
</g>
<g>
</g>
<g>
</g>
<g>
</g>
<g>
</g>
</svg>
