<?xml version="1.0"?>
<svg class="awaken" xmlns="http://www.w3.org/2000/svg" viewBox="0 0 512 512" width="512" height="512"><g id="Out_line" data-name="Out line"><path d="M287.52,91.21c-.04-.17993-.06982-.3501-.12012-.52l.10987.05Z"/><circle cx="192" cy="96" r="8"/><circle cx="216" cy="96" r="8"/><path d="M484.93018,397.41016,421.3999,304.99023A31.66815,31.66815,0,0,0,432,281.16992a127.62624,127.62624,0,0,0-18.2002-65.73l-30.33007-50.54-7.71-30.83984a8.01433,8.01433,0,0,0-4.17969-5.22022l-16-8A8.08465,8.08465,0,0,0,352,120h-8V104a7.98852,7.98852,0,0,0-4.68994-7.28L295.93018,77A63.96048,63.96048,0,0,0,192.18994,29.92993,40.00771,40.00771,0,0,0,140.48,53.26a222.21514,222.21514,0,0,0-13.95,68.46l-5.68994,130.84009v.04A124.23068,124.23068,0,0,0,120,267.0498a126.5038,126.5038,0,0,0,7.64014,43.37012L151.49,376h-81A54.49335,54.49335,0,0,0,53.26,482.18994,268.88756,268.88756,0,0,0,138.39014,496H433.06006a62.93982,62.93982,0,0,0,51.87012-98.58984ZM340.93994,136h9.16992l11.02,5.51,7.11035,28.42993a7.84154,7.84154,0,0,0,.89991,2.18018l30.93994,51.5498A111.64785,111.64785,0,0,1,416,281.16992a15.87971,15.87971,0,0,1-3.83008,10.41016l-5.06982-7.37988-28.27-70.66016a21.407,21.407,0,0,0-8.99024-10.53L359.71973,165.8999a7.983,7.983,0,0,0-5.77979-5.65991l-22.31982-5.58008ZM256,154.66992l12.7998-17.06982A32.02077,32.02077,0,0,0,292.37988,143.7l21.96,21.96h.01026a8.08708,8.08708,0,0,0,3.71,2.1001l27.44971,6.86011,7.17041,26.28979a21.396,21.396,0,0,0-9.63038,5.98023L317.98,178.68994a7.936,7.936,0,0,0-4.41016-2.53L273.8501,168.22l-.28028-.06006A7.4729,7.4729,0,0,0,272,168H256Zm85.58984,115.16992-42.00976-21a8.05342,8.05342,0,0,0-6.11035-.42993l-17.13965,5.71021A83.68008,83.68008,0,0,1,273.52,199.80005l4.1499-14.51,30.12988,6.03L337.49023,224.71v.01Zm-65.18994,1.12989,18.99024-6.32959,52.57959,26.27978v.01026A46.68406,46.68406,0,0,0,369.3999,310.02l25.53028,89.33984L276.83008,337.5a48.55993,48.55993,0,0,1-.43018-66.53027Zm107.29,30.83007a7.98052,7.98052,0,0,0-5.15967-5.38964,30.65929,30.65929,0,0,1-20.85009-26.33008l-4.37012-48.03A5.546,5.546,0,0,1,363.98,219.48l28.58984,71.48975a7.8091,7.8091,0,0,0,.84034,1.56006l15.25976,22.18994L390.04,324.02979ZM320,112a31.95255,31.95255,0,0,0-.73-6.82007l8.73,3.97v16.9502L317.81006,146.49l-9.6499-9.65015A31.97776,31.97776,0,0,0,320,112ZM287.50977,90.74l.01025.47c-.04-.17993-.06982-.3501-.12012-.52ZM288,112v-1a63.29825,63.29825,0,0,0,5.68994-13.94995A15.99755,15.99755,0,0,1,288,128a15.798,15.798,0,0,1-5.3501-.91992A23.82042,23.82042,0,0,0,288,112ZM232,32a48.04768,48.04768,0,0,1,47.96,46.08984,23.959,23.959,0,0,0-30.35986-1.27978A32.00805,32.00805,0,0,0,224,64H186.74A48.0757,48.0757,0,0,1,232,32ZM184,80h40a16.02116,16.02116,0,0,1,16,16,8,8,0,0,0,16,0,8,8,0,0,1,16,0v16a8.01058,8.01058,0,0,1-8,8h-8v-8H240v61.33008L232,184a40.18649,40.18649,0,0,1-32,16,8.01074,8.01074,0,0,1-8-8V180.12012A31.09484,31.09484,0,0,0,207.2,159.99c.27.01.53.01.8.01h16V144H208a24.03189,24.03189,0,0,1-24-24Zm0,71.98a39.95426,39.95426,0,0,0,7.59009,4.5A15.01758,15.01758,0,0,1,184,166.26Zm-41.49-29.56006a206.54192,206.54192,0,0,1,12.95-63.54,24.06806,24.06806,0,0,1,24.12012-15.54A63.56913,63.56913,0,0,0,168,80v88a7.9969,7.9969,0,0,0-6.1499,2.87988l-12.43018,14.93018a126.4,126.4,0,0,0-10.29,14.27Zm.16992,182.53028a110.88,110.88,0,0,1,19.03-108.90015L171.75,184H176v8a24.03189,24.03189,0,0,0,24,24,56.2618,56.2618,0,0,0,44.80005-22.3999L252,184h9.39014l-3.25,11.3999A99.7041,99.7041,0,0,0,262.5,262.54a64.65415,64.65415,0,0,0-6.10986,74.33008A105.60282,105.60282,0,0,1,181.53,368H165.6001ZM334.10986,480H224V446.10986l5.8999,1.60987a8.015,8.015,0,0,0,7.76-2.05957A23.36172,23.36172,0,0,1,264.66016,441.27l70.2998,35.1499A1.89123,1.89123,0,0,1,334.10986,480Zm98.9502,0H351.8999A16.88217,16.88217,0,0,0,352,478.10986a17.79153,17.79153,0,0,0-9.89014-16l-70.29-35.1499A39.35523,39.35523,0,0,0,229.95,431.1499l-52.11987-14.21972a173.452,173.452,0,0,0-67.4502-4.79L79.01,416.06006l1.98,15.87988L112.37012,428.02a157.45494,157.45494,0,0,1,61.25,4.3501L208,441.75V480H138.39014a252.74249,252.74249,0,0,1-80.07007-12.99023A38.49255,38.49255,0,0,1,70.49,392H160a7.9979,7.9979,0,0,0,8-8h13.53a121.64317,121.64317,0,0,0,84.74-34.41016l.06982.07032a8.30163,8.30163,0,0,0,1.9502,1.42968l168,88L443.71,424.91016l-29.21973-15.3003-19.98046-69.91992,23.31-11.6499,53.92041,78.42969A46.93769,46.93769,0,0,1,433.06006,480Z"/></g></svg>
