<svg id="awaken" height="512" viewBox="0 0 74 74" width="512" xmlns="http://www.w3.org/2000/svg"><path d="m47.17 72h-2.72a1 1 0 0 1 0-2h2.72a3.629 3.629 0 0 0 3.63-3.62v-6.36a1.783 1.783 0 0 0 -1.78-1.78h-24.04a1.783 1.783 0 0 0 -1.78 1.78v6.36a3.629 3.629 0 0 0 3.63 3.62h.72a1 1 0 0 1 0 2h-.72a5.632 5.632 0 0 1 -5.63-5.62v-6.36a3.785 3.785 0 0 1 3.78-3.78h24.04a3.785 3.785 0 0 1 3.78 3.78v6.36a5.632 5.632 0 0 1 -5.63 5.62z"/><path d="m37.45 72h-2.9a1 1 0 0 1 0-2h2.9a1 1 0 0 1 0 2z"/><path d="m49.021 58.241h-24.042a3.778 3.778 0 0 1 -3.779-3.774v-2.367a3.778 3.778 0 0 1 3.775-3.774h24.046a3.778 3.778 0 0 1 3.779 3.774v2.368a3.778 3.778 0 0 1 -3.779 3.773zm-24.042-7.916a1.776 1.776 0 0 0 -1.779 1.775v2.368a1.776 1.776 0 0 0 1.775 1.774h24.046a1.776 1.776 0 0 0 1.779-1.775v-2.367a1.776 1.776 0 0 0 -1.775-1.774z"/><path d="m49.021 50.325h-24.042a3.779 3.779 0 0 1 -3.779-3.775v-2.368a3.778 3.778 0 0 1 3.775-3.774h24.046a3.778 3.778 0 0 1 3.779 3.774v2.368a3.779 3.779 0 0 1 -3.779 3.775zm-24.042-7.917a1.776 1.776 0 0 0 -1.779 1.774v2.368a1.777 1.777 0 0 0 1.775 1.775h24.046a1.777 1.777 0 0 0 1.779-1.775v-2.368a1.776 1.776 0 0 0 -1.775-1.774z"/><path d="m49.021 42.408h-24.042a3.778 3.778 0 0 1 -3.779-3.774v-2.369a3.778 3.778 0 0 1 3.775-3.774h24.046a3.778 3.778 0 0 1 3.779 3.774v2.369a3.778 3.778 0 0 1 -3.779 3.774zm-24.042-7.917a1.776 1.776 0 0 0 -1.779 1.774v2.369a1.776 1.776 0 0 0 1.775 1.774h24.046a1.776 1.776 0 0 0 1.779-1.774v-2.369a1.776 1.776 0 0 0 -1.775-1.774z"/><path d="m49.021 34.491h-24.042a3.778 3.778 0 0 1 -3.779-3.774v-6.174a6.742 6.742 0 0 1 2.23-5l7.349-6.615a1 1 0 0 1 .669-.257h11.1a1 1 0 0 1 .669.257l7.349 6.615a6.742 6.742 0 0 1 2.23 5v6.174a3.778 3.778 0 0 1 -3.775 3.774zm-17.185-19.824-7.065 6.358a4.741 4.741 0 0 0 -1.571 3.518v6.174a1.776 1.776 0 0 0 1.775 1.774h24.046a1.776 1.776 0 0 0 1.779-1.774v-6.174a4.741 4.741 0 0 0 -1.567-3.518l-7.065-6.358z"/><path d="m42.548 14.667h-11.1a1 1 0 0 1 -1-1v-4.808a1 1 0 0 1 1-1h11.1a1 1 0 0 1 1 1v4.808a1 1 0 0 1 -1 1zm-10.1-2h9.1v-2.808h-9.1z"/><path d="m43.9 9.859h-13.8a1.948 1.948 0 0 1 -1.947-1.946v-3.967a1.948 1.948 0 0 1 1.947-1.946h13.8a1.948 1.948 0 0 1 1.947 1.946v3.967a1.948 1.948 0 0 1 -1.947 1.946zm-13.743-2h13.743l-.053-3.913-13.747.054z"/></svg>